<svg viewBox="0 0 680 380" xmlns="http://www.w3.org/2000/svg" font-family="'Source Sans Pro',Arial,sans-serif">
  <rect width="680" height="380" fill="#fafafa" rx="4"/>
  <text x="20" y="28" font-size="16" font-weight="600" fill="#0b0b0b">Product Sales by Category — Grouped &amp; Stacked modes</text>

  <!-- LEFT: Grouped -->
  <rect x="10" y="40" width="320" height="280" rx="6" fill="#fff" stroke="#e1e0d9" stroke-width="0.5"/>
  <text x="24" y="60" font-size="11" font-weight="500" fill="#52514e">Grouped</text>
  <line x1="30" y1="280" x2="310" y2="280" stroke="#c3c2b7" stroke-width="1"/>
  <line x1="30" y1="280" x2="30"  y2="80"  stroke="#c3c2b7" stroke-width="1"/>
  <line x1="30" y1="220" x2="310" y2="220" stroke="#e1e0d9" stroke-width="0.5"/>
  <line x1="30" y1="160" x2="310" y2="160" stroke="#e1e0d9" stroke-width="0.5"/>
  <line x1="30" y1="100" x2="310" y2="100" stroke="#e1e0d9" stroke-width="0.5"/>
  <text x="26" y="223" font-size="7" fill="#898781" text-anchor="end">15K</text>
  <text x="26" y="163" font-size="7" fill="#898781" text-anchor="end">30K</text>
  <text x="26" y="103" font-size="7" fill="#898781" text-anchor="end">45K</text>

  <!-- Electronics group -->
  <rect x="40" y="102" width="20" height="178" fill="#4477aa" opacity="0.9"/>
  <text x="50" y="97" font-size="7" fill="#595959" text-anchor="middle">52K</text>
  <rect x="62" y="108" width="20" height="172" fill="#66aadd" opacity="0.9"/>
  <text x="72" y="103" font-size="7" fill="#595959" text-anchor="middle">50K</text>
  <rect x="84" y="248" width="20" height="32"  fill="#cc6677" opacity="0.9"/>
  <rect x="106" y="262" width="20" height="18" fill="#882255" opacity="0.9"/>
  <text x="80" y="295" font-size="8" fill="#898781" text-anchor="middle">Electronics</text>

  <!-- Apparel group -->
  <rect x="148" y="172" width="20" height="108" fill="#4477aa" opacity="0.9"/>
  <text x="158" y="167" font-size="7" fill="#595959" text-anchor="middle">32K</text>
  <rect x="170" y="180" width="20" height="100" fill="#66aadd" opacity="0.9"/>
  <rect x="192" y="258" width="20" height="22"  fill="#cc6677" opacity="0.9"/>
  <rect x="214" y="265" width="20" height="15"  fill="#882255" opacity="0.9"/>
  <text x="196" y="295" font-size="8" fill="#898781" text-anchor="middle">Apparel</text>

  <!-- Legend -->
  <rect x="30"  y="308" width="8" height="8" rx="1" fill="#4477aa"/>
  <text x="41"  y="316" font-size="8" fill="#595959">Total</text>
  <rect x="82"  y="308" width="8" height="8" rx="1" fill="#66aadd"/>
  <text x="93"  y="316" font-size="8" fill="#595959">Online</text>
  <rect x="140" y="308" width="8" height="8" rx="1" fill="#cc6677"/>
  <text x="151" y="316" font-size="8" fill="#595959">In-Store</text>
  <rect x="210" y="308" width="8" height="8" rx="1" fill="#882255"/>
  <text x="221" y="316" font-size="8" fill="#595959">Returns</text>

  <!-- RIGHT: Stacked -->
  <rect x="350" y="40" width="320" height="280" rx="6" fill="#fff" stroke="#e1e0d9" stroke-width="0.5"/>
  <text x="364" y="60" font-size="11" font-weight="500" fill="#52514e">Stacked</text>
  <line x1="370" y1="280" x2="650" y2="280" stroke="#c3c2b7" stroke-width="1"/>
  <line x1="370" y1="280" x2="370" y2="80"  stroke="#c3c2b7" stroke-width="1"/>
  <line x1="370" y1="220" x2="650" y2="220" stroke="#e1e0d9" stroke-width="0.5"/>
  <line x1="370" y1="160" x2="650" y2="160" stroke="#e1e0d9" stroke-width="0.5"/>
  <line x1="370" y1="100" x2="650" y2="100" stroke="#e1e0d9" stroke-width="0.5"/>

  <!-- Electronics stacked -->
  <rect x="385" y="108" width="48" height="172" fill="#66aadd" opacity="0.9"/>
  <rect x="385" y="100" width="48" height="8"   fill="#4477aa" opacity="0.9"/>
  <rect x="385" y="248" width="48" height="32"  fill="#cc6677" opacity="0.9"/>
  <rect x="385" y="238" width="48" height="10"  fill="#882255" opacity="0.9"/>
  <text x="409" y="94" font-size="7" fill="#595959" text-anchor="middle">52K</text>
  <text x="409" y="295" font-size="8" fill="#898781" text-anchor="middle">Electronics</text>

  <!-- Apparel stacked -->
  <rect x="461" y="180" width="48" height="100" fill="#66aadd" opacity="0.9"/>
  <rect x="461" y="172" width="48" height="8"   fill="#4477aa" opacity="0.9"/>
  <rect x="461" y="258" width="48" height="22"  fill="#cc6677" opacity="0.9"/>
  <rect x="461" y="251" width="48" height="7"   fill="#882255" opacity="0.9"/>
  <text x="485" y="166" font-size="7" fill="#595959" text-anchor="middle">32K</text>
  <text x="485" y="295" font-size="8" fill="#898781" text-anchor="middle">Apparel</text>

  <!-- Homewares stacked -->
  <rect x="537" y="224" width="48" height="56"  fill="#66aadd" opacity="0.9"/>
  <rect x="537" y="218" width="48" height="6"   fill="#4477aa" opacity="0.9"/>
  <rect x="537" y="268" width="48" height="12"  fill="#cc6677" opacity="0.9"/>
  <text x="561" y="212" font-size="7" fill="#595959" text-anchor="middle">18K</text>
  <text x="561" y="295" font-size="8" fill="#898781" text-anchor="middle">Homewares</text>

  <!-- Legend right -->
  <rect x="370" y="308" width="8" height="8" rx="1" fill="#4477aa"/>
  <text x="381" y="316" font-size="8" fill="#595959">Total</text>
  <rect x="420" y="308" width="8" height="8" rx="1" fill="#66aadd"/>
  <text x="431" y="316" font-size="8" fill="#595959">Online</text>
  <rect x="478" y="308" width="8" height="8" rx="1" fill="#cc6677"/>
  <text x="489" y="316" font-size="8" fill="#595959">In-Store</text>
  <rect x="546" y="308" width="8" height="8" rx="1" fill="#882255"/>
  <text x="557" y="316" font-size="8" fill="#595959">Returns</text>

  <text x="340" y="358" font-size="10" fill="#898781" text-anchor="middle">Six label orientations · App theme colours · Full-row tooltips · Auto-responsive sizing</text>
</svg>
