<svg viewBox="0 0 680 380" xmlns="http://www.w3.org/2000/svg" font-family="'Source Sans Pro',Arial,sans-serif">
  <rect width="680" height="380" fill="#fafafa" rx="4"/>
  <text x="20" y="28" font-size="16" font-weight="600" fill="#0b0b0b">Grouped &amp; Stacked modes</text>

  <!-- LEFT: Grouped -->
  <rect x="10" y="40" width="320" height="280" rx="6" fill="#fff" stroke="#e1e0d9" stroke-width="0.5"/>
  <text x="24" y="60" font-size="11" font-weight="500" fill="#52514e">Grouped</text>
  <line x1="30" y1="280" x2="310" y2="280" stroke="#c3c2b7" stroke-width="1"/>
  <line x1="30" y1="280" x2="30"  y2="80" stroke="#c3c2b7" stroke-width="1"/>
  <line x1="30" y1="220" x2="310" y2="220" stroke="#e1e0d9" stroke-width="0.5"/>
  <line x1="30" y1="160" x2="310" y2="160" stroke="#e1e0d9" stroke-width="0.5"/>
  <line x1="30" y1="100" x2="310" y2="100" stroke="#e1e0d9" stroke-width="0.5"/>

  <!-- Dubai group -->
  <rect x="40" y="100" width="22" height="180" fill="#4477aa" opacity="0.9"/>
  <text x="51" y="96" font-size="7" fill="#595959" text-anchor="middle">842M</text>
  <rect x="64" y="103" width="22" height="177" fill="#66aadd" opacity="0.9"/>
  <text x="75" y="99" font-size="7" fill="#595959" text-anchor="middle">805M</text>
  <rect x="88" y="277" width="22" height="3" fill="#cc6677" opacity="0.9"/>
  <rect x="112" y="268" width="22" height="12" fill="#882255" opacity="0.9"/>
  <text x="88" y="295" font-size="8" fill="#898781" text-anchor="middle">Dubai</text>

  <!-- Abu Dhabi group -->
  <rect x="148" y="218" width="22" height="62" fill="#4477aa" opacity="0.9"/>
  <text x="159" y="214" font-size="7" fill="#595959" text-anchor="middle">220M</text>
  <rect x="172" y="220" width="22" height="60" fill="#66aadd" opacity="0.9"/>
  <rect x="196" y="277" width="22" height="3" fill="#cc6677" opacity="0.9"/>
  <rect x="220" y="276" width="22" height="4" fill="#882255" opacity="0.9"/>
  <text x="196" y="295" font-size="8" fill="#898781" text-anchor="middle">Abu Dhabi</text>

  <!-- Legend -->
  <rect x="30" y="308" width="8" height="8" rx="1" fill="#4477aa"/>
  <text x="41" y="316" font-size="8" fill="#595959">Consol.</text>
  <rect x="95" y="308" width="8" height="8" rx="1" fill="#66aadd"/>
  <text x="106" y="316" font-size="8" fill="#595959">Passeng.</text>
  <rect x="170" y="308" width="8" height="8" rx="1" fill="#cc6677"/>
  <text x="181" y="316" font-size="8" fill="#595959">Flights</text>
  <rect x="225" y="308" width="8" height="8" rx="1" fill="#882255"/>
  <text x="236" y="316" font-size="8" fill="#595959">Cargo</text>

  <!-- RIGHT: Stacked -->
  <rect x="350" y="40" width="320" height="280" rx="6" fill="#fff" stroke="#e1e0d9" stroke-width="0.5"/>
  <text x="364" y="60" font-size="11" font-weight="500" fill="#52514e">Stacked</text>
  <line x1="370" y1="280" x2="650" y2="280" stroke="#c3c2b7" stroke-width="1"/>
  <line x1="370" y1="280" x2="370"  y2="80" stroke="#c3c2b7" stroke-width="1"/>
  <line x1="370" y1="220" x2="650" y2="220" stroke="#e1e0d9" stroke-width="0.5"/>
  <line x1="370" y1="160" x2="650" y2="160" stroke="#e1e0d9" stroke-width="0.5"/>
  <line x1="370" y1="100" x2="650" y2="100" stroke="#e1e0d9" stroke-width="0.5"/>

  <!-- Dubai stacked -->
  <rect x="380" y="95"  width="44" height="177" fill="#66aadd" opacity="0.9"/>
  <rect x="380" y="88"  width="44" height="7"  fill="#4477aa" opacity="0.9"/>
  <rect x="380" y="274" width="44" height="3"  fill="#cc6677" opacity="0.9"/>
  <rect x="380" y="264" width="44" height="10" fill="#882255" opacity="0.9"/>
  <text x="402" y="84" font-size="7" fill="#595959" text-anchor="middle">842M</text>
  <text x="402" y="295" font-size="8" fill="#898781" text-anchor="middle">Dubai</text>

  <!-- Abu Dhabi stacked -->
  <rect x="450" y="220" width="44" height="58" fill="#66aadd" opacity="0.9"/>
  <rect x="450" y="214" width="44" height="6"  fill="#4477aa" opacity="0.9"/>
  <rect x="450" y="274" width="44" height="3"  fill="#cc6677" opacity="0.9"/>
  <rect x="450" y="270" width="44" height="4"  fill="#882255" opacity="0.9"/>
  <text x="472" y="210" font-size="7" fill="#595959" text-anchor="middle">220M</text>
  <text x="472" y="295" font-size="8" fill="#898781" text-anchor="middle">Abu Dhabi</text>

  <!-- Sharjah stacked -->
  <rect x="520" y="244" width="44" height="34" fill="#66aadd" opacity="0.9"/>
  <rect x="520" y="239" width="44" height="5"  fill="#4477aa" opacity="0.9"/>
  <rect x="520" y="277" width="44" height="2"  fill="#cc6677" opacity="0.9"/>
  <text x="542" y="235" font-size="7" fill="#595959" text-anchor="middle">127M</text>
  <text x="542" y="295" font-size="8" fill="#898781" text-anchor="middle">Sharjah</text>

  <!-- Legend right -->
  <rect x="370" y="308" width="8" height="8" rx="1" fill="#4477aa"/>
  <text x="381" y="316" font-size="8" fill="#595959">Consol.</text>
  <rect x="435" y="308" width="8" height="8" rx="1" fill="#66aadd"/>
  <text x="446" y="316" font-size="8" fill="#595959">Passeng.</text>
  <rect x="510" y="308" width="8" height="8" rx="1" fill="#cc6677"/>
  <text x="521" y="316" font-size="8" fill="#595959">Flights</text>
  <rect x="565" y="308" width="8" height="8" rx="1" fill="#882255"/>
  <text x="576" y="316" font-size="8" fill="#595959">Cargo</text>

  <!-- Caption -->
  <text x="340" y="358" font-size="10" fill="#898781" text-anchor="middle">Six label orientations · App theme colors · Full-row tooltips · Auto-responsive sizing</text>
</svg>
