<svg viewBox="0 0 680 420" xmlns="http://www.w3.org/2000/svg" font-family="'Source Sans Pro',Arial,sans-serif">
  <rect width="680" height="420" fill="#fafafa" rx="4"/>
  <text x="20" y="28" font-size="16" font-weight="600" fill="#0b0b0b">Emirates — Nested / Inset (Vertical, Above-bar labels)</text>

  <!-- Axes -->
  <line x1="60" y1="310" x2="640" y2="310" stroke="#c3c2b7" stroke-width="1"/>
  <line x1="60" y1="310" x2="60" y2="80" stroke="#c3c2b7" stroke-width="1"/>
  <!-- grid -->
  <line x1="60" y1="250" x2="640" y2="250" stroke="#e1e0d9" stroke-width="0.5"/>
  <line x1="60" y1="190" x2="640" y2="190" stroke="#e1e0d9" stroke-width="0.5"/>
  <line x1="60" y1="130" x2="640" y2="130" stroke="#e1e0d9" stroke-width="0.5"/>
  <text x="54" y="253" font-size="8" fill="#898781" text-anchor="end">200M</text>
  <text x="54" y="193" font-size="8" fill="#898781" text-anchor="end">400M</text>
  <text x="54" y="133" font-size="8" fill="#898781" text-anchor="end">600M</text>

  <!-- ═══ DUBAI column x=80..215 parentTip=90 ═══ -->
  <!-- Swatch band at y=56 -->
  <!-- Swatches evenly across column -->
  <rect x="84"  y="54" width="10" height="7" rx="1" fill="#888780"/>
  <text transform="translate(89,53) rotate(-45)" font-size="8" font-weight="600" fill="#0b0b0b" text-anchor="start">842.3M</text>
  <rect x="112" y="54" width="10" height="7" rx="1" fill="#66aadd"/>
  <text transform="translate(117,53) rotate(-45)" font-size="8" fill="#0b0b0b" text-anchor="start">804.8M</text>
  <rect x="140" y="54" width="10" height="7" rx="1" fill="#cc6677"/>
  <text transform="translate(145,53) rotate(-45)" font-size="8" fill="#0b0b0b" text-anchor="start">4.4M</text>
  <rect x="168" y="54" width="10" height="7" rx="1" fill="#882255"/>
  <text transform="translate(173,53) rotate(-45)" font-size="8" fill="#0b0b0b" text-anchor="start">33.1M</text>
  <!-- Connector lines from swatches to bar tips -->
  <line x1="89" y1="61" x2="89" y2="90" stroke="#888780" stroke-width="0.7" stroke-dasharray="2,2" opacity="0.6"/>
  <line x1="117" y1="61" x2="117" y2="93" stroke="#66aadd" stroke-width="0.7" stroke-dasharray="2,2" opacity="0.6"/>
  <line x1="145" y1="61" x2="145" y2="305" stroke="#cc6677" stroke-width="0.7" stroke-dasharray="2,2" opacity="0.5"/>
  <line x1="173" y1="61" x2="173" y2="280" stroke="#882255" stroke-width="0.7" stroke-dasharray="2,2" opacity="0.5"/>
  <!-- parent bar -->
  <rect x="80" y="90" width="135" height="220" rx="2" fill="#c8c7c0" stroke="#888780" stroke-width="0.8"/>
  <!-- child bars -->
  <rect x="80" y="93" width="42" height="217" fill="#66aadd" opacity="0.9"/>
  <rect x="128" y="303" width="32" height="7" fill="#cc6677" opacity="0.9"/>
  <rect x="164" y="278" width="34" height="32" fill="#882255" opacity="0.9"/>
  <text x="147" y="325" font-size="9" fill="#898781" text-anchor="middle">Dubai</text>

  <!-- ═══ ABU DHABI column x=260..370 parentTip=190 ═══ -->
  <rect x="264" y="188" width="10" height="7" rx="1" fill="#888780"/>
  <text transform="translate(269,187) rotate(-45)" font-size="8" font-weight="600" fill="#0b0b0b" text-anchor="start">219.7M</text>
  <rect x="292" y="188" width="10" height="7" rx="1" fill="#66aadd"/>
  <text transform="translate(297,187) rotate(-45)" font-size="8" fill="#0b0b0b" text-anchor="start">213.6M</text>
  <rect x="320" y="188" width="10" height="7" rx="1" fill="#cc6677"/>
  <text transform="translate(325,187) rotate(-45)" font-size="8" fill="#0b0b0b" text-anchor="start">1.6M</text>
  <rect x="348" y="188" width="10" height="7" rx="1" fill="#882255"/>
  <text transform="translate(353,187) rotate(-45)" font-size="8" fill="#0b0b0b" text-anchor="start">4.4M</text>
  <line x1="269" y1="195" x2="269" y2="190" stroke="#888780" stroke-width="0.7" stroke-dasharray="2,2" opacity="0.6"/>
  <line x1="297" y1="195" x2="297" y2="193" stroke="#66aadd" stroke-width="0.7" stroke-dasharray="2,2" opacity="0.6"/>
  <line x1="325" y1="195" x2="325" y2="305" stroke="#cc6677" stroke-width="0.7" stroke-dasharray="2,2" opacity="0.5"/>
  <line x1="353" y1="195" x2="353" y2="302" stroke="#882255" stroke-width="0.7" stroke-dasharray="2,2" opacity="0.5"/>
  <rect x="260" y="190" width="110" height="120" rx="2" fill="#c8c7c0" stroke="#888780" stroke-width="0.8"/>
  <rect x="260" y="193" width="34" height="117" fill="#66aadd" opacity="0.9"/>
  <rect x="298" y="304" width="26" height="6" fill="#cc6677" opacity="0.9"/>
  <rect x="328" y="299" width="28" height="11" fill="#882255" opacity="0.9"/>
  <text x="315" y="325" font-size="9" fill="#898781" text-anchor="middle">Abu Dhabi</text>

  <!-- ═══ SHARJAH column x=430..530 parentTip=245 ═══ -->
  <rect x="434" y="243" width="10" height="7" rx="1" fill="#888780"/>
  <text transform="translate(439,242) rotate(-45)" font-size="8" font-weight="600" fill="#0b0b0b" text-anchor="start">126.8M</text>
  <rect x="460" y="243" width="10" height="7" rx="1" fill="#66aadd"/>
  <text transform="translate(465,242) rotate(-45)" font-size="8" fill="#0b0b0b" text-anchor="start">124.5M</text>
  <rect x="488" y="243" width="10" height="7" rx="1" fill="#cc6677"/>
  <text transform="translate(493,242) rotate(-45)" font-size="8" fill="#0b0b0b" text-anchor="start">878.1K</text>
  <rect x="516" y="243" width="10" height="7" rx="1" fill="#882255"/>
  <text transform="translate(521,242) rotate(-45)" font-size="8" fill="#0b0b0b" text-anchor="start">1.4M</text>
  <line x1="439" y1="250" x2="439" y2="245" stroke="#888780" stroke-width="0.7" stroke-dasharray="2,2" opacity="0.6"/>
  <line x1="465" y1="250" x2="465" y2="248" stroke="#66aadd" stroke-width="0.7" stroke-dasharray="2,2" opacity="0.6"/>
  <line x1="493" y1="250" x2="493" y2="308" stroke="#cc6677" stroke-width="0.7" stroke-dasharray="2,2" opacity="0.5"/>
  <line x1="521" y1="250" x2="521" y2="305" stroke="#882255" stroke-width="0.7" stroke-dasharray="2,2" opacity="0.5"/>
  <rect x="430" y="245" width="100" height="65" rx="2" fill="#c8c7c0" stroke="#888780" stroke-width="0.8"/>
  <rect x="430" y="247" width="30" height="63" fill="#66aadd" opacity="0.9"/>
  <rect x="464" y="307" width="24" height="3" fill="#cc6677" opacity="0.9"/>
  <rect x="492" y="302" width="26" height="8" fill="#882255" opacity="0.9"/>
  <text x="480" y="325" font-size="9" fill="#898781" text-anchor="middle">Sharjah</text>

  <!-- Legend -->
  <rect x="140" y="390" width="10" height="10" rx="1" fill="#888780"/>
  <text x="154" y="399" font-size="10" fill="#595959">Consolidated</text>
  <rect x="255" y="390" width="10" height="10" rx="1" fill="#66aadd"/>
  <text x="269" y="399" font-size="10" fill="#595959">Passengers</text>
  <rect x="365" y="390" width="10" height="10" rx="1" fill="#cc6677"/>
  <text x="379" y="399" font-size="10" fill="#595959">Flights</text>
  <rect x="435" y="390" width="10" height="10" rx="1" fill="#882255"/>
  <text x="449" y="399" font-size="10" fill="#595959">Cargo</text>
</svg>
