<svg viewBox="0 0 680 420" xmlns="http://www.w3.org/2000/svg" font-family="'Source Sans Pro',Arial,sans-serif">
  <rect width="680" height="420" fill="#fafafa" rx="4"/>
  <text x="20" y="28" font-size="16" font-weight="600" fill="#0b0b0b">Quarterly Sales — Nested / Inset (Vertical, Above-bar labels)</text>

  <line x1="60" y1="310" x2="640" y2="310" stroke="#c3c2b7" stroke-width="1"/>
  <line x1="60" y1="310" x2="60"  y2="80"  stroke="#c3c2b7" stroke-width="1"/>
  <line x1="60" y1="250" x2="640" y2="250" stroke="#e1e0d9" stroke-width="0.5"/>
  <line x1="60" y1="190" x2="640" y2="190" stroke="#e1e0d9" stroke-width="0.5"/>
  <line x1="60" y1="130" x2="640" y2="130" stroke="#e1e0d9" stroke-width="0.5"/>
  <text x="54" y="253" font-size="8" fill="#898781" text-anchor="end">30K</text>
  <text x="54" y="193" font-size="8" fill="#898781" text-anchor="end">60K</text>
  <text x="54" y="133" font-size="8" fill="#898781" text-anchor="end">90K</text>

  <!-- ═══ Q1 column x=80..215 parentTip=88 ═══ -->
  <rect x="84"  y="54" width="10" height="7" rx="1" fill="#888780"/>
  <text transform="translate(89,53) rotate(-45)" font-size="8" font-weight="600" fill="#0b0b0b" text-anchor="start">112.4K</text>
  <rect x="112" y="54" width="10" height="7" rx="1" fill="#66aadd"/>
  <text transform="translate(117,53) rotate(-45)" font-size="8" fill="#0b0b0b" text-anchor="start">98.7K</text>
  <rect x="140" y="54" width="10" height="7" rx="1" fill="#cc6677"/>
  <text transform="translate(145,53) rotate(-45)" font-size="8" fill="#0b0b0b" text-anchor="start">10.2K</text>
  <rect x="168" y="54" width="10" height="7" rx="1" fill="#882255"/>
  <text transform="translate(173,53) rotate(-45)" font-size="8" fill="#0b0b0b" text-anchor="start">3.5K</text>
  <line x1="89"  y1="61" x2="89"  y2="88"  stroke="#888780" stroke-width="0.7" stroke-dasharray="2,2" opacity="0.6"/>
  <line x1="117" y1="61" x2="117" y2="91"  stroke="#66aadd" stroke-width="0.7" stroke-dasharray="2,2" opacity="0.6"/>
  <line x1="145" y1="61" x2="145" y2="306" stroke="#cc6677" stroke-width="0.7" stroke-dasharray="2,2" opacity="0.5"/>
  <line x1="173" y1="61" x2="173" y2="298" stroke="#882255" stroke-width="0.7" stroke-dasharray="2,2" opacity="0.5"/>
  <rect x="80" y="88" width="135" height="222" rx="2" fill="#c8c7c0" stroke="#888780" stroke-width="0.8"/>
  <rect x="80" y="91" width="42"  height="219" fill="#66aadd" opacity="0.9"/>
  <rect x="128" y="300" width="32" height="10"  fill="#cc6677" opacity="0.9"/>
  <rect x="164" y="292" width="34" height="18"  fill="#882255" opacity="0.9"/>
  <text x="147" y="325" font-size="9" fill="#898781" text-anchor="middle">Q1</text>

  <!-- ═══ Q2 column x=260..370 parentTip=192 ═══ -->
  <rect x="264" y="188" width="10" height="7" rx="1" fill="#888780"/>
  <text transform="translate(269,187) rotate(-45)" font-size="8" font-weight="600" fill="#0b0b0b" text-anchor="start">58.6K</text>
  <rect x="292" y="188" width="10" height="7" rx="1" fill="#66aadd"/>
  <text transform="translate(297,187) rotate(-45)" font-size="8" fill="#0b0b0b" text-anchor="start">51.3K</text>
  <rect x="320" y="188" width="10" height="7" rx="1" fill="#cc6677"/>
  <text transform="translate(325,187) rotate(-45)" font-size="8" fill="#0b0b0b" text-anchor="start">5.4K</text>
  <rect x="348" y="188" width="10" height="7" rx="1" fill="#882255"/>
  <text transform="translate(353,187) rotate(-45)" font-size="8" fill="#0b0b0b" text-anchor="start">1.9K</text>
  <line x1="269" y1="195" x2="269" y2="192" stroke="#888780" stroke-width="0.7" stroke-dasharray="2,2" opacity="0.6"/>
  <line x1="297" y1="195" x2="297" y2="195" stroke="#66aadd" stroke-width="0.7" stroke-dasharray="2,2" opacity="0.6"/>
  <line x1="325" y1="195" x2="325" y2="305" stroke="#cc6677" stroke-width="0.7" stroke-dasharray="2,2" opacity="0.5"/>
  <line x1="353" y1="195" x2="353" y2="302" stroke="#882255" stroke-width="0.7" stroke-dasharray="2,2" opacity="0.5"/>
  <rect x="260" y="192" width="110" height="118" rx="2" fill="#c8c7c0" stroke="#888780" stroke-width="0.8"/>
  <rect x="260" y="195" width="34"  height="115" fill="#66aadd" opacity="0.9"/>
  <rect x="298" y="304" width="26"  height="6"   fill="#cc6677" opacity="0.9"/>
  <rect x="328" y="300" width="28"  height="10"  fill="#882255" opacity="0.9"/>
  <text x="315" y="325" font-size="9" fill="#898781" text-anchor="middle">Q2</text>

  <!-- ═══ Q3 column x=430..530 parentTip=247 ═══ -->
  <rect x="434" y="243" width="10" height="7" rx="1" fill="#888780"/>
  <text transform="translate(439,242) rotate(-45)" font-size="8" font-weight="600" fill="#0b0b0b" text-anchor="start">33.1K</text>
  <rect x="460" y="243" width="10" height="7" rx="1" fill="#66aadd"/>
  <text transform="translate(465,242) rotate(-45)" font-size="8" fill="#0b0b0b" text-anchor="start">29.4K</text>
  <rect x="488" y="243" width="10" height="7" rx="1" fill="#cc6677"/>
  <text transform="translate(493,242) rotate(-45)" font-size="8" fill="#0b0b0b" text-anchor="start">2.8K</text>
  <rect x="516" y="243" width="10" height="7" rx="1" fill="#882255"/>
  <text transform="translate(521,242) rotate(-45)" font-size="8" fill="#0b0b0b" text-anchor="start">0.9K</text>
  <line x1="439" y1="250" x2="439" y2="247" stroke="#888780" stroke-width="0.7" stroke-dasharray="2,2" opacity="0.6"/>
  <line x1="465" y1="250" x2="465" y2="250" stroke="#66aadd" stroke-width="0.7" stroke-dasharray="2,2" opacity="0.6"/>
  <line x1="493" y1="250" x2="493" y2="308" stroke="#cc6677" stroke-width="0.7" stroke-dasharray="2,2" opacity="0.5"/>
  <line x1="521" y1="250" x2="521" y2="308" stroke="#882255" stroke-width="0.7" stroke-dasharray="2,2" opacity="0.5"/>
  <rect x="430" y="247" width="100" height="63" rx="2" fill="#c8c7c0" stroke="#888780" stroke-width="0.8"/>
  <rect x="430" y="250" width="30"  height="60" fill="#66aadd" opacity="0.9"/>
  <rect x="464" y="307" width="24"  height="3"  fill="#cc6677" opacity="0.9"/>
  <rect x="492" y="305" width="26"  height="5"  fill="#882255" opacity="0.9"/>
  <text x="480" y="325" font-size="9" fill="#898781" text-anchor="middle">Q3</text>

  <!-- Legend -->
  <rect x="120" y="390" width="10" height="10" rx="1" fill="#888780"/>
  <text x="134" y="399" font-size="10" fill="#595959">Total Revenue</text>
  <rect x="245" y="390" width="10" height="10" rx="1" fill="#66aadd"/>
  <text x="259" y="399" font-size="10" fill="#595959">Online Sales</text>
  <rect x="360" y="390" width="10" height="10" rx="1" fill="#cc6677"/>
  <text x="374" y="399" font-size="10" fill="#595959">In-Store</text>
  <rect x="438" y="390" width="10" height="10" rx="1" fill="#882255"/>
  <text x="452" y="399" font-size="10" fill="#595959">Returns</text>
</svg>
