<svg viewBox="0 0 680 400" xmlns="http://www.w3.org/2000/svg" font-family="'Source Sans Pro',Arial,sans-serif">
  <rect width="680" height="400" fill="#fafafa" rx="4"/>
  <text x="20" y="28" font-size="16" font-weight="600" fill="#0b0b0b">Regional Sales — Nested / Inset (Horizontal)</text>
  <line x1="140" y1="50" x2="140" y2="340" stroke="#c3c2b7" stroke-width="1"/>
  <line x1="140" y1="340" x2="580" y2="340" stroke="#c3c2b7" stroke-width="1"/>
  <line x1="250" y1="50" x2="250" y2="340" stroke="#e1e0d9" stroke-width="0.5"/>
  <line x1="360" y1="50" x2="360" y2="340" stroke="#e1e0d9" stroke-width="0.5"/>
  <line x1="470" y1="50" x2="470" y2="340" stroke="#e1e0d9" stroke-width="0.5"/>
  <text x="248" y="355" font-size="9" fill="#898781" text-anchor="middle">25K</text>
  <text x="358" y="355" font-size="9" fill="#898781" text-anchor="middle">50K</text>
  <text x="468" y="355" font-size="9" fill="#898781" text-anchor="middle">75K</text>
  <line x1="580" y1="50" x2="580" y2="340" stroke="#e1e0d9" stroke-width="0.5" stroke-dasharray="2,3"/>

  <!-- ROW 1: North Region -->
  <text x="135" y="92" font-size="10" fill="#595959" text-anchor="end">North Region</text>
  <rect x="140" y="60" width="430" height="52" rx="2" fill="#c8c7c0" stroke="#888780" stroke-width="0.8"/>
  <rect x="140" y="62" width="395" height="13" fill="#66aadd" opacity="0.9"/>
  <rect x="140" y="77" width="38"  height="11" fill="#cc6677" opacity="0.9"/>
  <rect x="140" y="90" width="12"  height="13" fill="#882255" opacity="0.9"/>
  <rect x="583" y="63" width="6" height="9" rx="1" fill="#888780"/>
  <text x="592" y="71" font-size="9" font-weight="600" fill="#0b0b0b">98.4K</text>
  <line x1="535" y1="70" x2="580" y2="70" stroke="#66aadd" stroke-width="1.2"/>
  <rect x="583" y="74" width="6" height="9" rx="1" fill="#66aadd" opacity="0.9"/>
  <text x="592" y="82" font-size="9" fill="#0b0b0b">90.2K</text>
  <line x1="178" y1="88" x2="580" y2="88" stroke="#cc6677" stroke-width="0.7" stroke-dasharray="4,2" opacity="0.7"/>
  <rect x="583" y="85" width="6" height="9" rx="1" fill="#cc6677" opacity="0.9"/>
  <text x="592" y="93" font-size="9" fill="#0b0b0b">8.7K</text>
  <line x1="152" y1="99" x2="580" y2="99" stroke="#882255" stroke-width="0.7" stroke-dasharray="4,2" opacity="0.7"/>
  <rect x="583" y="96" width="6" height="9" rx="1" fill="#882255" opacity="0.9"/>
  <text x="592" y="104" font-size="9" fill="#0b0b0b">2.8K</text>

  <!-- ROW 2: South Region -->
  <text x="135" y="162" font-size="10" fill="#595959" text-anchor="end">South Region</text>
  <rect x="140" y="130" width="210" height="48" rx="2" fill="#c8c7c0" stroke="#888780" stroke-width="0.8"/>
  <rect x="140" y="132" width="196" height="12" fill="#66aadd" opacity="0.9"/>
  <rect x="140" y="146" width="18"  height="10" fill="#cc6677" opacity="0.9"/>
  <rect x="140" y="158" width="6"   height="10" fill="#882255" opacity="0.9"/>
  <rect x="583" y="133" width="6" height="9" rx="1" fill="#888780"/>
  <text x="592" y="141" font-size="9" font-weight="600" fill="#0b0b0b">48.3K</text>
  <line x1="336" y1="141" x2="580" y2="141" stroke="#66aadd" stroke-width="0.7" stroke-dasharray="4,2" opacity="0.65"/>
  <rect x="583" y="144" width="6" height="9" rx="1" fill="#66aadd" opacity="0.9"/>
  <text x="592" y="152" font-size="9" fill="#0b0b0b">45.1K</text>
  <line x1="158" y1="156" x2="580" y2="156" stroke="#cc6677" stroke-width="0.7" stroke-dasharray="4,2" opacity="0.6"/>
  <rect x="583" y="155" width="6" height="9" rx="1" fill="#cc6677" opacity="0.9"/>
  <text x="592" y="163" font-size="9" fill="#0b0b0b">4.1K</text>
  <line x1="146" y1="167" x2="580" y2="167" stroke="#882255" stroke-width="0.7" stroke-dasharray="4,2" opacity="0.6"/>
  <rect x="583" y="166" width="6" height="9" rx="1" fill="#882255" opacity="0.9"/>
  <text x="592" y="174" font-size="9" fill="#0b0b0b">1.4K</text>

  <!-- ROW 3: East Region -->
  <text x="135" y="232" font-size="10" fill="#595959" text-anchor="end">East Region</text>
  <rect x="140" y="200" width="108" height="48" rx="2" fill="#c8c7c0" stroke="#888780" stroke-width="0.8"/>
  <rect x="140" y="202" width="100" height="12" fill="#66aadd" opacity="0.9"/>
  <rect x="140" y="216" width="9"   height="10" fill="#cc6677" opacity="0.9"/>
  <rect x="140" y="228" width="3"   height="10" fill="#882255" opacity="0.9"/>
  <rect x="583" y="203" width="6" height="9" rx="1" fill="#888780"/>
  <text x="592" y="211" font-size="9" font-weight="600" fill="#0b0b0b">24.9K</text>
  <line x1="240" y1="211" x2="580" y2="211" stroke="#66aadd" stroke-width="0.7" stroke-dasharray="4,2" opacity="0.6"/>
  <rect x="583" y="214" width="6" height="9" rx="1" fill="#66aadd" opacity="0.9"/>
  <text x="592" y="222" font-size="9" fill="#0b0b0b">23.1K</text>
  <rect x="583" y="225" width="6" height="9" rx="1" fill="#cc6677" opacity="0.9"/>
  <text x="592" y="233" font-size="9" fill="#0b0b0b">2.1K</text>
  <rect x="583" y="236" width="6" height="9" rx="1" fill="#882255" opacity="0.9"/>
  <text x="592" y="244" font-size="9" fill="#0b0b0b">0.7K</text>

  <!-- Legend -->
  <rect x="140" y="370" width="10" height="10" rx="1" fill="#888780"/>
  <text x="154" y="379" font-size="10" fill="#595959">Total Revenue</text>
  <rect x="265" y="370" width="10" height="10" rx="1" fill="#66aadd" opacity="0.9"/>
  <text x="279" y="379" font-size="10" fill="#595959">Online Sales</text>
  <rect x="375" y="370" width="10" height="10" rx="1" fill="#cc6677" opacity="0.9"/>
  <text x="389" y="379" font-size="10" fill="#595959">In-Store</text>
  <rect x="450" y="370" width="10" height="10" rx="1" fill="#882255" opacity="0.9"/>
  <text x="464" y="379" font-size="10" fill="#595959">Returns</text>
</svg>
